<svg width="40" height="40" xmlns="http://www.w3.org/2000/svg" xmlns:xlink="http://www.w3.org/1999/xlink"><defs><linearGradient x1="50%" y1="0%" x2="50%" y2="100%" id="b"><stop stop-color="#FF6503" offset="0%"/><stop stop-color="#C8009F" offset="100%"/></linearGradient><linearGradient x1="50%" y1="0%" x2="50%" y2="100%" id="e"><stop stop-color="#FF6503" offset="0%"/><stop stop-color="#C8009F" offset="100%"/></linearGradient><path d="M10.345 3.766L.247 25.376A2.61 2.61 0 000 26.437v.1a2.654 2.654 0 001.532 2.358l9.606 4.47V9.563L20.72 0 10.345 3.766z" id="a"/><path d="M13.106 0a2.622 2.622 0 00-1.824.767L0 12.078v23.71a2.637 2.637 0 002.628 2.634l21.024-.001a2.637 2.637 0 002.628-2.634V12.078L15 .767A2.63 2.63 0 0013.174 0h-.068zm-1.608 4.175a1.642 1.642 0 113.285 0 1.644 1.644 0 01-3.285 0z" id="d"/></defs><g fill="none" fill-rule="evenodd"><g transform="translate(0 2.466)"><mask id="c" fill="#fff"><use xlink:href="#a"/></mask><path d="M10.345 3.766L.247 25.376A2.61 2.61 0 000 26.437v.1a2.654 2.654 0 001.532 2.358l9.606 4.47V9.563L20.72 0 10.345 3.766z" fill="url(#b)" mask="url(#c)"/></g><g transform="translate(13.241 1)"><mask id="f" fill="#fff"><use xlink:href="#d"/></mask><path d="M13.106 0a2.622 2.622 0 00-1.824.767L0 12.078v23.71a2.637 2.637 0 002.628 2.634l21.024-.001a2.637 2.637 0 002.628-2.634V12.078L15 .767A2.63 2.63 0 0013.174 0h-.068zm-1.608 4.175a1.642 1.642 0 113.285 0 1.644 1.644 0 01-3.285 0z" fill="url(#e)" mask="url(#f)"/></g><path d="M23.898 30.564V12.87h-5.055v22.75h15.163v-5.056z" fill="#FFF"/></g></svg>